<?xml version="1.0" encoding="UTF-8" standalone="no"?>
<!DOCTYPE svg PUBLIC "-//W3C//DTD SVG 1.1//EN"
 "http://www.w3.org/Graphics/SVG/1.1/DTD/svg11.dtd">
<!-- Generated by graphviz version 2.47.0 (20210316.0004)
 -->
<!-- Title: dependencies Pages: 1 -->
<svg width="504pt" height="284pt"
 viewBox="0.00 0.00 504.00 284.00" xmlns="http://www.w3.org/2000/svg" xmlns:xlink="http://www.w3.org/1999/xlink">
<g id="graph0" class="graph" transform="scale(1 1) rotate(0) translate(4 280)">
<title>dependencies</title>
<polygon fill="white" stroke="transparent" points="-4,4 -4,-280 500,-280 500,4 -4,4"/>
<text text-anchor="start" x="227.01" y="-42.4" font-family="Times-12" font-weight="bold" font-size="14.00">Legend</text>
<polygon fill="#ffffb3" stroke="transparent" points="14,-10 14,-30 34,-30 34,-10 14,-10"/>
<text text-anchor="start" x="37.63" y="-15.4" font-family="Times-12" font-size="14.00"> &#160;Declarations</text>
<polygon fill="#8dd3c7" stroke="transparent" points="127,-10 127,-30 147,-30 147,-10 127,-10"/>
<text text-anchor="start" x="150.73" y="-15.4" font-family="Times-12" font-size="14.00"> &#160;Module</text>
<polygon fill="#80b1d3" stroke="transparent" points="213,-10 213,-30 233,-30 233,-10 213,-10"/>
<text text-anchor="start" x="236.78" y="-15.4" font-family="Times-12" font-size="14.00"> &#160;Bootstrap</text>
<polygon fill="#fdb462" stroke="transparent" points="310,-10 310,-30 330,-30 330,-10 310,-10"/>
<text text-anchor="start" x="333.67" y="-15.4" font-family="Times-12" font-size="14.00"> &#160;Providers</text>
<polygon fill="#fb8072" stroke="transparent" points="406,-10 406,-30 426,-30 426,-10 406,-10"/>
<text text-anchor="start" x="429.73" y="-15.4" font-family="Times-12" font-size="14.00"> &#160;Exports</text>
<g id="clust1" class="cluster">
<title>cluster_EventsModule</title>
<polygon fill="none" stroke="black" stroke-dasharray="1,5" points="108,-70 108,-268 388,-268 388,-70 108,-70"/>
</g>
<g id="clust6" class="cluster">
<title>cluster_EventsModule_providers</title>
<polygon fill="none" stroke="black" points="232,-78 232,-130 380,-130 380,-78 232,-78"/>
</g>
<g id="clust4" class="cluster">
<title>cluster_EventsModule_exports</title>
<polygon fill="none" stroke="black" points="182,-208 182,-260 298,-260 298,-208 182,-208"/>
</g>
<g id="clust3" class="cluster">
<title>cluster_EventsModule_imports</title>
<polygon fill="none" stroke="black" points="116,-78 116,-130 224,-130 224,-78 116,-78"/>
</g>
<!-- ArtistModule -->
<g id="node1" class="node">
<title>ArtistModule</title>
<polygon fill="#8dd3c7" stroke="black" points="215.93,-122 212.93,-126 191.93,-126 188.93,-122 124.07,-122 124.07,-86 215.93,-86 215.93,-122"/>
<text text-anchor="middle" x="170" y="-99.8" font-family="Times,serif" font-size="14.00">ArtistModule</text>
</g>
<!-- EventsModule -->
<g id="node2" class="node">
<title>EventsModule</title>
<polygon fill="#8dd3c7" stroke="black" points="288.65,-187 285.65,-191 264.65,-191 261.65,-187 191.35,-187 191.35,-151 288.65,-151 288.65,-187"/>
<text text-anchor="middle" x="240" y="-164.8" font-family="Times,serif" font-size="14.00">EventsModule</text>
</g>
<!-- ArtistModule&#45;&gt;EventsModule -->
<g id="edge1" class="edge">
<title>ArtistModule&#45;&gt;EventsModule</title>
<path fill="none" stroke="black" d="M203.45,-122.11C203.45,-122.11 203.45,-140.99 203.45,-140.99"/>
<polygon fill="black" stroke="black" points="199.95,-140.99 203.45,-150.99 206.95,-140.99 199.95,-140.99"/>
</g>
<!-- EventsService  -->
<g id="node3" class="node">
<title>EventsService </title>
<polygon fill="#fb8072" stroke="black" points="289.58,-252 190.42,-252 190.42,-216 289.58,-216 289.58,-252"/>
<text text-anchor="middle" x="240" y="-229.8" font-family="Times,serif" font-size="14.00">EventsService </text>
</g>
<!-- EventsModule&#45;&gt;EventsService  -->
<g id="edge2" class="edge">
<title>EventsModule&#45;&gt;EventsService </title>
<path fill="none" stroke="black" stroke-dasharray="5,2" d="M240,-187.11C240,-187.11 240,-205.99 240,-205.99"/>
<polygon fill="black" stroke="black" points="236.5,-205.99 240,-215.99 243.5,-205.99 236.5,-205.99"/>
</g>
<!-- EventsService -->
<g id="node4" class="node">
<title>EventsService</title>
<ellipse fill="#fdb462" stroke="black" cx="306" cy="-104" rx="66.05" ry="18"/>
<text text-anchor="middle" x="306" y="-99.8" font-family="Times,serif" font-size="14.00">EventsService</text>
</g>
<!-- EventsService&#45;&gt;EventsModule -->
<g id="edge3" class="edge">
<title>EventsService&#45;&gt;EventsModule</title>
<path fill="none" stroke="black" d="M264.28,-118.1C264.28,-118.1 264.28,-140.72 264.28,-140.72"/>
<polygon fill="black" stroke="black" points="260.78,-140.72 264.28,-150.72 267.78,-140.72 260.78,-140.72"/>
</g>
</g>
</svg>
