<?xml version="1.0" encoding="UTF-8" standalone="no"?>
<!DOCTYPE svg PUBLIC "-//W3C//DTD SVG 1.1//EN"
 "http://www.w3.org/Graphics/SVG/1.1/DTD/svg11.dtd">
<!-- Generated by graphviz version 2.47.0 (20210316.0004)
 -->
<!-- Title: dependencies Pages: 1 -->
<svg width="504pt" height="284pt"
 viewBox="0.00 0.00 504.00 284.00" xmlns="http://www.w3.org/2000/svg" xmlns:xlink="http://www.w3.org/1999/xlink">
<g id="graph0" class="graph" transform="scale(1 1) rotate(0) translate(4 280)">
<title>dependencies</title>
<polygon fill="white" stroke="transparent" points="-4,4 -4,-280 500,-280 500,4 -4,4"/>
<text text-anchor="start" x="227.01" y="-42.4" font-family="Times-12" font-weight="bold" font-size="14.00">Legend</text>
<polygon fill="#ffffb3" stroke="transparent" points="14,-10 14,-30 34,-30 34,-10 14,-10"/>
<text text-anchor="start" x="37.63" y="-15.4" font-family="Times-12" font-size="14.00"> &#160;Declarations</text>
<polygon fill="#8dd3c7" stroke="transparent" points="127,-10 127,-30 147,-30 147,-10 127,-10"/>
<text text-anchor="start" x="150.73" y="-15.4" font-family="Times-12" font-size="14.00"> &#160;Module</text>
<polygon fill="#80b1d3" stroke="transparent" points="213,-10 213,-30 233,-30 233,-10 213,-10"/>
<text text-anchor="start" x="236.78" y="-15.4" font-family="Times-12" font-size="14.00"> &#160;Bootstrap</text>
<polygon fill="#fdb462" stroke="transparent" points="310,-10 310,-30 330,-30 330,-10 310,-10"/>
<text text-anchor="start" x="333.67" y="-15.4" font-family="Times-12" font-size="14.00"> &#160;Providers</text>
<polygon fill="#fb8072" stroke="transparent" points="406,-10 406,-30 426,-30 426,-10 406,-10"/>
<text text-anchor="start" x="429.73" y="-15.4" font-family="Times-12" font-size="14.00"> &#160;Exports</text>
<g id="clust1" class="cluster">
<title>cluster_UsersModule</title>
<polygon fill="none" stroke="black" stroke-dasharray="1,5" points="90,-70 90,-268 406,-268 406,-70 90,-70"/>
</g>
<g id="clust6" class="cluster">
<title>cluster_UsersModule_providers</title>
<polygon fill="none" stroke="black" points="98,-78 98,-130 398,-130 398,-78 98,-78"/>
</g>
<g id="clust4" class="cluster">
<title>cluster_UsersModule_exports</title>
<polygon fill="none" stroke="black" points="121,-208 121,-260 343,-260 343,-208 121,-208"/>
</g>
<!-- UsersModule  -->
<g id="node1" class="node">
<title>UsersModule </title>
<polygon fill="#fb8072" stroke="black" points="335.42,-252 240.58,-252 240.58,-216 335.42,-216 335.42,-252"/>
<text text-anchor="middle" x="288" y="-229.8" font-family="Times,serif" font-size="14.00">UsersModule </text>
</g>
<!-- UsersService  -->
<g id="node2" class="node">
<title>UsersService </title>
<polygon fill="#fb8072" stroke="black" points="222.85,-252 129.15,-252 129.15,-216 222.85,-216 222.85,-252"/>
<text text-anchor="middle" x="176" y="-229.8" font-family="Times,serif" font-size="14.00">UsersService </text>
</g>
<!-- UsersModule -->
<g id="node3" class="node">
<title>UsersModule</title>
<polygon fill="#8dd3c7" stroke="black" points="244.92,-187 241.92,-191 220.92,-191 217.92,-187 153.08,-187 153.08,-151 244.92,-151 244.92,-187"/>
<text text-anchor="middle" x="199" y="-164.8" font-family="Times,serif" font-size="14.00">UsersModule</text>
</g>
<!-- UsersModule&#45;&gt;UsersModule  -->
<g id="edge1" class="edge">
<title>UsersModule&#45;&gt;UsersModule </title>
<path fill="none" stroke="black" stroke-dasharray="5,2" d="M231.61,-187.11C231.61,-206.34 231.61,-234 231.61,-234 231.61,-234 232.49,-234 232.49,-234"/>
<polygon fill="black" stroke="black" points="230.42,-237.5 240.42,-234 230.42,-230.5 230.42,-237.5"/>
</g>
<!-- UsersModule&#45;&gt;UsersService  -->
<g id="edge2" class="edge">
<title>UsersModule&#45;&gt;UsersService </title>
<path fill="none" stroke="black" stroke-dasharray="5,2" d="M187.98,-187.11C187.98,-187.11 187.98,-205.99 187.98,-205.99"/>
<polygon fill="black" stroke="black" points="184.48,-205.99 187.98,-215.99 191.48,-205.99 184.48,-205.99"/>
</g>
<!-- BcryptProvider -->
<g id="node4" class="node">
<title>BcryptProvider</title>
<ellipse fill="#fdb462" stroke="black" cx="319" cy="-104" rx="70.65" ry="18"/>
<text text-anchor="middle" x="319" y="-99.8" font-family="Times,serif" font-size="14.00">BcryptProvider</text>
</g>
<!-- BcryptProvider&#45;&gt;UsersModule -->
<g id="edge3" class="edge">
<title>BcryptProvider&#45;&gt;UsersModule</title>
<path fill="none" stroke="black" d="M248.36,-104C241.68,-104 237.34,-104 237.34,-104 237.34,-104 237.34,-140.89 237.34,-140.89"/>
<polygon fill="black" stroke="black" points="233.84,-140.89 237.34,-150.89 240.84,-140.89 233.84,-140.89"/>
</g>
<!-- UsersService -->
<g id="node5" class="node">
<title>UsersService</title>
<ellipse fill="#fdb462" stroke="black" cx="168" cy="-104" rx="61.95" ry="18"/>
<text text-anchor="middle" x="168" y="-99.8" font-family="Times,serif" font-size="14.00">UsersService</text>
</g>
<!-- UsersService&#45;&gt;UsersModule -->
<g id="edge4" class="edge">
<title>UsersService&#45;&gt;UsersModule</title>
<path fill="none" stroke="black" d="M191.63,-120.74C191.63,-120.74 191.63,-140.72 191.63,-140.72"/>
<polygon fill="black" stroke="black" points="188.13,-140.72 191.63,-150.72 195.13,-140.72 188.13,-140.72"/>
</g>
</g>
</svg>
