<?xml version="1.0" encoding="UTF-8" standalone="no"?>
<!DOCTYPE svg PUBLIC "-//W3C//DTD SVG 1.1//EN"
 "http://www.w3.org/Graphics/SVG/1.1/DTD/svg11.dtd">
<!-- Generated by graphviz version 2.47.0 (20210316.0004)
 -->
<!-- Title: dependencies Pages: 1 -->
<svg width="544pt" height="211pt"
 viewBox="0.00 0.00 544.00 211.00" xmlns="http://www.w3.org/2000/svg" xmlns:xlink="http://www.w3.org/1999/xlink">
<g id="graph0" class="graph" transform="scale(1 1) rotate(0) translate(4 207)">
<title>dependencies</title>
<polygon fill="white" stroke="transparent" points="-4,4 -4,-207 540,-207 540,4 -4,4"/>
<text text-anchor="start" x="247.01" y="-42.4" font-family="Times-12" font-weight="bold" font-size="14.00">Legend</text>
<polygon fill="#ffffb3" stroke="transparent" points="34,-10 34,-30 54,-30 54,-10 34,-10"/>
<text text-anchor="start" x="57.63" y="-15.4" font-family="Times-12" font-size="14.00"> &#160;Declarations</text>
<polygon fill="#8dd3c7" stroke="transparent" points="147,-10 147,-30 167,-30 167,-10 147,-10"/>
<text text-anchor="start" x="170.73" y="-15.4" font-family="Times-12" font-size="14.00"> &#160;Module</text>
<polygon fill="#80b1d3" stroke="transparent" points="233,-10 233,-30 253,-30 253,-10 233,-10"/>
<text text-anchor="start" x="256.78" y="-15.4" font-family="Times-12" font-size="14.00"> &#160;Bootstrap</text>
<polygon fill="#fdb462" stroke="transparent" points="330,-10 330,-30 350,-30 350,-10 330,-10"/>
<text text-anchor="start" x="353.67" y="-15.4" font-family="Times-12" font-size="14.00"> &#160;Providers</text>
<polygon fill="#fb8072" stroke="transparent" points="426,-10 426,-30 446,-30 446,-10 426,-10"/>
<text text-anchor="start" x="449.73" y="-15.4" font-family="Times-12" font-size="14.00"> &#160;Exports</text>
<g id="clust1" class="cluster">
<title>cluster_BookingModule</title>
<polygon fill="none" stroke="black" stroke-dasharray="1,5" points="8,-70 8,-195 528,-195 528,-70 8,-70"/>
</g>
<g id="clust3" class="cluster">
<title>cluster_BookingModule_imports</title>
<polygon fill="none" stroke="black" points="186,-78 186,-130 520,-130 520,-78 186,-78"/>
</g>
<g id="clust6" class="cluster">
<title>cluster_BookingModule_providers</title>
<polygon fill="none" stroke="black" points="16,-78 16,-130 178,-130 178,-78 16,-78"/>
</g>
<!-- ArtistModule -->
<g id="node1" class="node">
<title>ArtistModule</title>
<polygon fill="#8dd3c7" stroke="black" points="511.93,-122 508.93,-126 487.93,-126 484.93,-122 420.07,-122 420.07,-86 511.93,-86 511.93,-122"/>
<text text-anchor="middle" x="466" y="-99.8" font-family="Times,serif" font-size="14.00">ArtistModule</text>
</g>
<!-- BookingModule -->
<g id="node4" class="node">
<title>BookingModule</title>
<polygon fill="#8dd3c7" stroke="black" points="349.78,-187 346.78,-191 325.78,-191 322.78,-187 242.22,-187 242.22,-151 349.78,-151 349.78,-187"/>
<text text-anchor="middle" x="296" y="-164.8" font-family="Times,serif" font-size="14.00">BookingModule</text>
</g>
<!-- ArtistModule&#45;&gt;BookingModule -->
<g id="edge1" class="edge">
<title>ArtistModule&#45;&gt;BookingModule</title>
<path fill="none" stroke="black" d="M466,-122.11C466,-141.34 466,-169 466,-169 466,-169 359.79,-169 359.79,-169"/>
<polygon fill="black" stroke="black" points="359.79,-165.5 349.79,-169 359.79,-172.5 359.79,-165.5"/>
</g>
<!-- EventsModule -->
<g id="node2" class="node">
<title>EventsModule</title>
<polygon fill="#8dd3c7" stroke="black" points="401.65,-122 398.65,-126 377.65,-126 374.65,-122 304.35,-122 304.35,-86 401.65,-86 401.65,-122"/>
<text text-anchor="middle" x="353" y="-99.8" font-family="Times,serif" font-size="14.00">EventsModule</text>
</g>
<!-- EventsModule&#45;&gt;BookingModule -->
<g id="edge2" class="edge">
<title>EventsModule&#45;&gt;BookingModule</title>
<path fill="none" stroke="black" d="M327.03,-122.11C327.03,-122.11 327.03,-140.99 327.03,-140.99"/>
<polygon fill="black" stroke="black" points="323.53,-140.99 327.03,-150.99 330.53,-140.99 323.53,-140.99"/>
</g>
<!-- UsersModule -->
<g id="node3" class="node">
<title>UsersModule</title>
<polygon fill="#8dd3c7" stroke="black" points="285.92,-122 282.92,-126 261.92,-126 258.92,-122 194.08,-122 194.08,-86 285.92,-86 285.92,-122"/>
<text text-anchor="middle" x="240" y="-99.8" font-family="Times,serif" font-size="14.00">UsersModule</text>
</g>
<!-- UsersModule&#45;&gt;BookingModule -->
<g id="edge3" class="edge">
<title>UsersModule&#45;&gt;BookingModule</title>
<path fill="none" stroke="black" d="M263.91,-122.11C263.91,-122.11 263.91,-140.99 263.91,-140.99"/>
<polygon fill="black" stroke="black" points="260.41,-140.99 263.91,-150.99 267.41,-140.99 260.41,-140.99"/>
</g>
<!-- BookingService -->
<g id="node5" class="node">
<title>BookingService</title>
<ellipse fill="#fdb462" stroke="black" cx="97" cy="-104" rx="73.02" ry="18"/>
<text text-anchor="middle" x="97" y="-99.8" font-family="Times,serif" font-size="14.00">BookingService</text>
</g>
<!-- BookingService&#45;&gt;BookingModule -->
<g id="edge4" class="edge">
<title>BookingService&#45;&gt;BookingModule</title>
<path fill="none" stroke="black" d="M97,-122.11C97,-141.34 97,-169 97,-169 97,-169 232.15,-169 232.15,-169"/>
<polygon fill="black" stroke="black" points="232.15,-172.5 242.15,-169 232.15,-165.5 232.15,-172.5"/>
</g>
</g>
</svg>
